<svg width="16" height="13" viewBox="0 0 16 13" fill="none" xmlns="http://www.w3.org/2000/svg">
<path d="M8.47904 0.812402C8.70564 0.585874 9.01293 0.458618 9.33333 0.458618C9.65374 0.458618 9.96103 0.585874 10.1876 0.812402L15.021 5.64573C15.2475 5.87233 15.3747 6.17962 15.3747 6.50003C15.3747 6.82043 15.2475 7.12772 15.021 7.35432L10.1876 12.1877C9.95973 12.4078 9.6545 12.5296 9.33768 12.5268C9.02086 12.524 8.7178 12.397 8.49376 12.1729C8.26973 11.9489 8.14265 11.6458 8.13989 11.329C8.13714 11.0122 8.25893 10.707 8.47904 10.4791L11.2498 7.70836H2.08333C1.76286 7.70836 1.45552 7.58105 1.22891 7.35445C1.00231 7.12784 0.875 6.8205 0.875 6.50003C0.875 6.17956 1.00231 5.87221 1.22891 5.64561C1.45552 5.419 1.76286 5.29169 2.08333 5.29169H11.2498L8.47904 2.52098C8.25251 2.29439 8.12526 1.9871 8.12526 1.66669C8.12526 1.34629 8.25251 1.039 8.47904 0.812402Z" fill="url(#paint0_linear_1_61)"/>
<defs>
<linearGradient id="paint0_linear_1_61" x1="8.12487" y1="0.458618" x2="18.5334" y2="8.37238" gradientUnits="userSpaceOnUse">
<stop stop-color="#FF5353"/>
<stop offset="1" stop-color="#E91E1E"/>
</linearGradient>
</defs>
</svg>
