<svg width="12" height="23" viewBox="0 0 12 23" fill="none" xmlns="http://www.w3.org/2000/svg">
<path d="M4.25 0.625C3.28859 0.625 2.36656 1.00692 1.68674 1.68674C1.00692 2.36656 0.625 3.28859 0.625 4.25V18.75C0.625 19.7114 1.00692 20.6334 1.68674 21.3133C2.36656 21.9931 3.28859 22.375 4.25 22.375H10.2917C10.6121 22.375 10.9195 22.2477 11.1461 22.0211C11.3727 21.7945 11.5 21.4871 11.5 21.1667C11.5 20.8462 11.3727 20.5389 11.1461 20.3122C10.9195 20.0856 10.6121 19.9583 10.2917 19.9583H4.25C3.92953 19.9583 3.62219 19.831 3.39558 19.6044C3.16897 19.3778 3.04167 19.0705 3.04167 18.75V4.25C3.04167 3.92953 3.16897 3.62219 3.39558 3.39558C3.62219 3.16897 3.92953 3.04167 4.25 3.04167H10.2917C10.6121 3.04167 10.9195 2.91436 11.1461 2.68775C11.3727 2.46115 11.5 2.1538 11.5 1.83333C11.5 1.51286 11.3727 1.20552 11.1461 0.978913C10.9195 0.752306 10.6121 0.625 10.2917 0.625H4.25Z" fill="url(#paint0_linear_1_60)"/>
<defs>
<linearGradient id="paint0_linear_1_60" x1="6.0625" y1="0.625" x2="17.2607" y2="4.1682" gradientUnits="userSpaceOnUse">
<stop stop-color="#FF5353"/>
<stop offset="1" stop-color="#E91E1E"/>
</linearGradient>
</defs>
</svg>
