<svg width="27" height="30" viewBox="0 0 27 30" fill="" xmlns="http://www.w3.org/2000/svg">
<path d="M6.25 23.5379C9.28325 23.5379 11.75 21.0711 11.75 18.0379V4.08849L24.125 8.58749V18.8037C23.2929 18.308 22.3435 18.0436 21.375 18.0379C18.3417 18.0379 15.875 20.5046 15.875 23.5379C15.875 26.5711 18.3417 29.0379 21.375 29.0379C24.4082 29.0379 26.875 26.5711 26.875 23.5379V7.62499C26.8752 7.34288 26.7884 7.06757 26.6265 6.83653C26.4646 6.6055 26.2355 6.42998 25.9702 6.33387L10.8452 0.833869C10.6376 0.757965 10.4147 0.733298 10.1955 0.761962C9.97631 0.790626 9.76726 0.871775 9.58613 0.998516C9.40499 1.12526 9.25712 1.29385 9.15508 1.48996C9.05304 1.68607 8.99984 1.90392 9 2.12499V13.3037C8.16794 12.808 7.21853 12.5436 6.25 12.5379C3.21675 12.5379 0.75 15.0046 0.75 18.0379C0.75 21.0711 3.21675 23.5379 6.25 23.5379Z" fill="#F6F6F6"/>
</svg>
